<svg xmlns="http://www.w3.org/2000/svg" viewBox="0 0 455.14 232.29"><defs><style>.cls-1{fill:#3d59f0;}.cls-2{fill:#fff;}</style></defs><g id="Layer_2" data-name="Layer 2"><g id="Layer_2-2" data-name="Layer 2"><path class="cls-1" d="M219.28,70.9H231v6.62H219.28v40.13h-7.4V77.52h-6.72V70.9h6.72V59.77c0-10.28,6-15.17,15.46-15.17a23.21,23.21,0,0,1,5.85.77v6.24a31.56,31.56,0,0,0-4.12-.29c-6.24,0-9.79,2.3-9.79,8.93Z"/><path class="cls-1" d="M260.94,69.84c13.34-.19,24.76,11,24.48,24.39.28,13.15-11.23,24.67-24.58,24.38-13.34.29-24.57-11.23-24.38-24.38C236.17,80.88,247.6,69.56,260.94,69.84Zm0,6.82c-9.6,0-16.9,7.58-16.9,17.66,0,9.79,7.3,17.47,16.8,17.47s17-7.68,17-17.47C277.83,84.24,270.44,76.66,260.94,76.66Z"/><path class="cls-1" d="M323.24,77.43h-2.78c-7.87,0-14.69,5.09-14.69,13.73v26.49h-7.39V70.9h6.91v6.62a18,18,0,0,1,14.49-7,15.11,15.11,0,0,1,3.46.38Z"/><path class="cls-1" d="M332.55,70.9h7.3V99.51c0,7.58,5.18,12.38,12.09,12.38s11.91-5,11.91-12.38V70.9h7.39V99c0,11.8-8.45,19.68-19.3,19.68S332.55,110.83,332.55,99Z"/><path class="cls-1" d="M455.14,117.65h-7.39V89.24c0-7.59-4.13-12.58-11-12.58a11.68,11.68,0,0,0-12,11.9v29.09h-7.39V89.24c0-7.59-4.32-12.58-11.13-12.58-7,0-11.91,5.18-11.91,12.58v28.41h-7.39V70.9h6.91v4.9a17.9,17.9,0,0,1,13.92-6c6.82,0,11.71,3,14.4,8.07a19.2,19.2,0,0,1,16-8.07c10.75,0,17,7.3,17,18.44Z"/><polygon class="cls-1" points="54.55 232.29 121.55 168.29 54.55 168.29 54.55 232.29"/><rect class="cls-1" width="176" height="176" rx="25.18"/><path class="cls-2" d="M90,76.79h17.08v9.66H90V145H79.25V86.45h-9.8V76.79h9.8V60.55c0-15,8.68-22.12,22.54-22.12a34,34,0,0,1,8.54,1.12v9.1a48.44,48.44,0,0,0-6-.42c-9.1,0-14.28,3.36-14.28,13Z"/></g></g></svg>