<svg xmlns="http://www.w3.org/2000/svg" viewBox="0 0 249.98 74.11"><defs><style>.cls-1{fill:#3d59f0;}</style></defs><g id="Layer_2" data-name="Layer 2"><g id="Layer_2-2" data-name="Layer 2"><path class="cls-1" d="M14.11,26.3H25.82v6.63H14.11V73.05H6.72V32.93H0V26.3H6.72V15.17C6.72,4.9,12.67,0,22.17,0A23.28,23.28,0,0,1,28,.77V7a33.7,33.7,0,0,0-4.13-.29c-6.24,0-9.79,2.3-9.79,8.93Z"/><path class="cls-1" d="M55.77,25.25c13.35-.2,24.77,11,24.48,24.38C80.54,62.78,69,74.3,55.68,74,42.33,74.3,31.1,62.78,31.3,49.63,31,36.29,42.43,25,55.77,25.25Zm0,6.81c-9.6,0-16.89,7.59-16.89,17.66,0,9.8,7.29,17.48,16.8,17.48s17-7.68,17-17.48C72.67,39.65,65.28,32.06,55.77,32.06Z"/><path class="cls-1" d="M118.08,32.83h-2.79c-7.87,0-14.69,5.09-14.69,13.73V73.05H93.21V26.3h6.91v6.63a18,18,0,0,1,14.5-7,15.11,15.11,0,0,1,3.46.38Z"/><path class="cls-1" d="M127.39,26.3h7.3V54.91c0,7.58,5.18,12.38,12.09,12.38s11.9-5,11.9-12.38V26.3h7.4V54.43c0,11.81-8.45,19.68-19.3,19.68s-19.39-7.87-19.39-19.68Z"/><path class="cls-1" d="M250,73.05h-7.4V44.64c0-7.59-4.12-12.58-11-12.58a11.68,11.68,0,0,0-12,11.9V73.05h-7.39V44.64c0-7.59-4.32-12.58-11.14-12.58-7,0-11.9,5.19-11.9,12.58V73.05h-7.39V26.3h6.91v4.9a17.89,17.89,0,0,1,13.92-5.95c6.81,0,11.71,3,14.4,8.06a19.17,19.17,0,0,1,16-8.06c10.75,0,17,7.29,17,18.43Z"/></g></g></svg>